<svg width="343" height="70" viewBox="0 0 343 70" fill="none" xmlns="http://www.w3.org/2000/svg">
<path d="M2.74534 60.3028C1.23765 60.3028 0 59.1009 0 57.6368C0 56.1726 1.23765 54.9707 2.74534 54.9707C4.25303 54.9707 5.49069 56.1726 5.49069 57.6368C5.49069 59.1009 4.25303 60.3028 2.74534 60.3028ZM2.74534 55.5389C1.55269 55.5389 0.56257 56.4786 0.56257 57.6586C0.56257 58.8387 1.53019 59.7783 2.74534 59.7783C3.96049 59.7783 4.92812 58.8387 4.92812 57.6586C4.92812 56.4786 3.93799 55.5389 2.74534 55.5389Z" fill="#313030"/>
<path d="M45.5249 38.3746H38.324C38.1214 38.3746 37.9414 38.1998 37.9414 38.0031V31.0102C37.9414 30.8135 38.1214 30.6387 38.324 30.6387H45.5249C45.7274 30.6387 45.9074 30.8135 45.9074 31.0102V38.0031C45.9299 38.2216 45.7499 38.3746 45.5249 38.3746ZM38.729 37.6316H45.1423V31.4035H38.729V37.6316Z" fill="#313030"/>
<path d="M85.5695 18.8168H82.7341C82.5316 18.8168 82.3516 18.642 82.3516 18.4453V15.6918C82.3516 15.4951 82.5316 15.3203 82.7341 15.3203H85.5695C85.772 15.3203 85.952 15.4951 85.952 15.6918V18.4453C85.9745 18.642 85.7945 18.8168 85.5695 18.8168ZM83.1392 18.0738H85.1869V16.0852H83.1392V18.0738Z" fill="#313030"/>
</svg>
