<?xml version="1.0" encoding="utf-8"?>
<!-- Generator: Adobe Illustrator 26.0.3, SVG Export Plug-In . SVG Version: 6.00 Build 0)  -->
<svg version="1.0" id="katman_1" xmlns="http://www.w3.org/2000/svg" xmlns:xlink="http://www.w3.org/1999/xlink" x="0px" y="0px"
	 viewBox="0 0 600 450" style="enable-background:new 0 0 600 450;" xml:space="preserve">
<style type="text/css">
	.st0{fill:#293361;}
	.st1{fill:#009A45;}
	.st2{fill:#EA5A1E;}
	.st3{fill:#F5B0CC;}
	.st4{fill:#F4991A;}
</style>
<rect x="202.5" y="204.2" class="st0" width="8.8" height="45.5"/>
<path class="st0" d="M245.6,233.6c0,6.3-4,9.1-9.4,9.1s-9-2.8-9-8.8v-16.2h-8.8v18.3c0,9.1,5.7,14.4,15.2,14.4c6,0,9.3-2.2,11.5-4.7
	h0.5l0.8,4h8.1v-32.1h-8.9V233.6z"/>
<path class="st0" d="M332.4,243.4c-6.5,0-10.1-2.9-10.7-7.2h28.1c0.1-0.9,0.2-1.8,0.2-2.7c-0.1-11.5-8.8-16.4-18.1-16.4
	c-10.8,0-19,6.5-19,16.9c0,9.9,7.8,16.4,19.6,16.4c9.8,0,16.3-4.4,17.7-11h-8.7C340.2,242,337.1,243.4,332.4,243.4z M331.8,224
	c5.6,0,8.9,2.5,9.4,6h-19.4C322.7,226.7,325.9,224,331.8,224L331.8,224z"/>
<path class="st0" d="M365,222.3h-0.5l-0.8-4.6h-8v32.1h8.8v-13.8c0-6.2,3.6-9.7,10.3-9.7c1.2,0,2.4,0.1,3.6,0.3v-8.9H377
	C371.1,217.7,367.5,218.9,365,222.3z"/>
<polygon class="st0" points="421.7,239.7 421.2,239.7 413.6,219.7 404.5,219.7 397.1,239.7 396.5,239.7 389.4,217.7 380.7,217.7 
	391.5,249.7 401.1,249.7 408.8,229.3 409.3,229.3 416.9,249.7 426.6,249.7 437.4,217.7 428.6,217.7 "/>
<path class="st0" d="M472.6,240.4v-10.7c0-8.7-7.4-12.6-16.5-12.6c-9.7,0-15.8,4.6-16.7,11.5h8.8c0.6-3,3.2-4.7,7.8-4.7
	s7.7,1.7,7.7,5.3v0.8l-14.4,1.1c-6.7,0.5-11.5,3.5-11.5,9.7c0,6.5,5.6,9.6,13.8,9.6c6.6,0,10.7-1.8,13.1-4.6h0.4
	c1.4,3.1,4.2,4,7.3,4h3.7v-6.5h-0.8C473.5,243.2,472.6,242.3,472.6,240.4z M463.8,237c0,5.1-6,6.7-11.2,6.7c-3.5,0-5.8-0.9-5.8-3.3
	c0-2.2,2-3.3,4.9-3.5l12.1-0.9L463.8,237z"/>
<polygon class="st0" points="505.3,217.7 495,240.9 494.4,240.9 484,217.7 474.4,217.7 489.4,249.7 499.9,249.7 514.8,217.7 "/>
<path class="st0" d="M543.1,239.3c-1.1,2.6-4.2,4-9,4c-6.5,0-10.1-2.9-10.7-7.2h28.1c0.1-0.9,0.2-1.8,0.2-2.7
	c-0.1-11.5-8.8-16.4-18.1-16.4c-10.8,0-19,6.5-19,16.9c0,9.9,7.8,16.4,19.6,16.4c9.8,0,16.3-4.4,17.7-11H543.1z M533.5,224
	c5.6,0,8.9,2.5,9.4,6h-19.4C524.4,226.7,527.7,224,533.5,224L533.5,224z"/>
<path class="st0" d="M188.1,215.3c0-2.8,2-4,4.6-4c1.2,0,2.4,0.2,3.5,0.5l1.5-6.4c-2.1-0.8-4.4-1.1-6.7-1.2
	c-6.5,0-11.8,3.5-11.8,10.6v2.8h-7.6v7h7.6v25h8.9v-25h10v-7h-10V215.3z"/>
<path class="st0" d="M274,208.6h-8.2l-0.5,9h-7v7h6.8v15.8c0,5.4,2.7,9.9,11,9.9c2.1,0,4.3-0.2,6.3-0.7v-6.7
	c-1.2,0.3-2.4,0.4-3.7,0.5c-4.4,0-4.8-2.5-4.8-4.4v-14.3h8.8v-7H274V208.6z"/>
<path class="st0" d="M301.8,208.6h-8.2l-0.5,9h-7v7h6.8v15.8c0,5.4,2.7,9.9,11,9.9c2.1,0,4.3-0.2,6.3-0.7v-6.7
	c-1.2,0.3-2.4,0.4-3.7,0.5c-4.4,0-4.8-2.5-4.8-4.4v-14.3h8.8v-7h-8.8V208.6z"/>
<path class="st1" d="M48.4,203c0-5.1,1.5-9.5,4.7-12.7l5.5,5.5c-6.1,6.1-0.8,25,16.6,42.4s36.4,22.8,42.5,16.7l5.5,5.5
	c-10.3,10.3-33.8,3-53.4-16.7C56.1,230.1,48.4,214.6,48.4,203z"/>
<path class="st2" d="M83,265.1c-5.1,0-9.5-1.5-12.7-4.7l5.5-5.5c6.1,6.1,25,0.8,42.5-16.7s22.7-36.4,16.6-42.5l5.5-5.5
	c10.3,10.3,3,33.8-16.7,53.4C110.1,257.4,94.7,265.1,83,265.1z"/>
<path class="st3" d="M125.6,235.9c-3.3-9.6-10.1-19.9-19.2-28.9c-19.6-19.7-43.1-27-53.4-16.7l0,0c-0.7,0.7-0.1,2.6,1.4,4.1
	c1.5,1.5,3.3,2.1,4.1,1.4c6.1-6.1,25-0.8,42.5,16.7c8.2,8.2,14.4,17.4,17.3,25.9c2.6,7.5,2.3,13.5-0.7,16.5l0,0
	c-0.7,0.7-0.1,2.6,1.4,4.1s3.3,2.1,4.1,1.4C128.3,255.2,129.2,246.4,125.6,235.9z"/>
<path class="st4" d="M140.4,190.4c-5.3-5.3-14-6.2-24.5-2.5C106.3,191.2,96,198,87,207c-19.6,19.6-27,43.1-16.7,53.4l0,0
	c0.7,0.7,2.6,0.1,4.1-1.4s2.1-3.3,1.4-4.1c-6.1-6.1-0.8-25,16.7-42.5c8.2-8.2,17.4-14.4,25.9-17.3c7.5-2.6,13.5-2.3,16.5,0.7l0,0
	c0.7,0.7,2.6,0.1,4.1-1.4C140.5,192.9,141.1,191.1,140.4,190.4z"/>
</svg>
