<svg width="138" height="30" viewBox="0 0 138 30" fill="none" xmlns="http://www.w3.org/2000/svg">
<g opacity="0.7">
<circle cx="15" cy="15" r="14.5" stroke="#FEF7EF"/>
<g clip-path="url(#clip0_26_6360)">
<path d="M13.1824 22.2008V15.4439H11.3984V13.0111H13.1824V10.9331C13.1824 9.30028 14.2361 7.80078 16.6643 7.80078C17.6474 7.80078 18.3744 7.89517 18.3744 7.89517L18.3171 10.167C18.3171 10.167 17.5757 10.1598 16.7666 10.1598C15.891 10.1598 15.7507 10.5639 15.7507 11.2347V13.0111H18.3867L18.272 15.4439H15.7507V22.2008H13.1824Z" fill="#FEF7EF"/>
</g>
<circle cx="69" cy="15" r="14.5" stroke="#FEF7EF"/>
<g clip-path="url(#clip1_26_6360)">
<path fill-rule="evenodd" clip-rule="evenodd" d="M66.2774 8.43999C66.9812 8.40759 67.2056 8.40039 68.9984 8.40039C70.7912 8.40039 71.0156 8.40819 71.7188 8.43999C72.422 8.47179 72.902 8.58399 73.322 8.74659C73.7618 8.91279 74.1608 9.17259 74.4908 9.50859C74.8268 9.83799 75.086 10.2364 75.2516 10.6768C75.4148 11.0968 75.5264 11.5768 75.5588 12.2788C75.5912 12.9838 75.5984 13.2082 75.5984 15.0004C75.5984 16.7932 75.5906 17.0176 75.5588 17.7214C75.527 18.4234 75.4148 18.9034 75.2516 19.3234C75.086 19.7638 74.8264 20.1629 74.4908 20.4928C74.1608 20.8288 73.7618 21.088 73.322 21.2536C72.902 21.4168 72.422 21.5284 71.72 21.5608C71.0156 21.5932 70.7912 21.6004 68.9984 21.6004C67.2056 21.6004 66.9812 21.5926 66.2774 21.5608C65.5754 21.529 65.0954 21.4168 64.6754 21.2536C64.235 21.088 63.8359 20.8283 63.506 20.4928C63.1703 20.1632 62.9104 19.7643 62.7446 19.324C62.582 18.904 62.4704 18.424 62.438 17.722C62.4056 17.017 62.3984 16.7926 62.3984 15.0004C62.3984 13.2076 62.4062 12.9832 62.438 12.28C62.4698 11.5768 62.582 11.0968 62.7446 10.6768C62.9107 10.2364 63.1707 9.83758 63.5066 9.50799C63.8361 9.17229 64.2347 8.91246 64.6748 8.74659C65.0948 8.58399 65.5748 8.47239 66.2768 8.43999H66.2774ZM71.6654 9.62799C70.9694 9.59619 70.7606 9.58959 68.9984 9.58959C67.2362 9.58959 67.0274 9.59619 66.3314 9.62799C65.6876 9.65739 65.3384 9.76479 65.1056 9.85539C64.7978 9.97539 64.5776 10.1176 64.3466 10.3486C64.1277 10.5616 63.9591 10.821 63.8534 11.1076C63.7628 11.3404 63.6554 11.6896 63.626 12.3334C63.5942 13.0294 63.5876 13.2382 63.5876 15.0004C63.5876 16.7626 63.5942 16.9714 63.626 17.6674C63.6554 18.3112 63.7628 18.6604 63.8534 18.8932C63.959 19.1794 64.1276 19.4392 64.3466 19.6522C64.5596 19.8712 64.8194 20.0398 65.1056 20.1454C65.3384 20.236 65.6876 20.3434 66.3314 20.3728C67.0274 20.4046 67.2356 20.4112 68.9984 20.4112C70.7612 20.4112 70.9694 20.4046 71.6654 20.3728C72.3092 20.3434 72.6584 20.236 72.8912 20.1454C73.199 20.0254 73.4192 19.8832 73.6502 19.6522C73.8692 19.4392 74.0378 19.1794 74.1434 18.8932C74.234 18.6604 74.3414 18.3112 74.3708 17.6674C74.4026 16.9714 74.4092 16.7626 74.4092 15.0004C74.4092 13.2382 74.4026 13.0294 74.3708 12.3334C74.3414 11.6896 74.234 11.3404 74.1434 11.1076C74.0234 10.7998 73.8812 10.5796 73.6502 10.3486C73.4372 10.1296 73.1779 9.96112 72.8912 9.85539C72.6584 9.76479 72.3092 9.65739 71.6654 9.62799ZM68.1554 17.035C68.6262 17.231 69.1505 17.2574 69.6386 17.1098C70.1267 16.9622 70.5485 16.6497 70.8318 16.2257C71.1151 15.8017 71.2425 15.2925 71.1921 14.7851C71.1417 14.2776 70.9166 13.8034 70.5554 13.4434C70.3252 13.2133 70.0468 13.0371 69.7402 12.9275C69.4337 12.8179 69.1067 12.7776 68.7827 12.8096C68.4588 12.8415 68.1459 12.9449 67.8667 13.1123C67.5875 13.2796 67.3489 13.5068 67.168 13.7775C66.9872 14.0482 66.8686 14.3556 66.8207 14.6776C66.7729 14.9996 66.7971 15.3282 66.8916 15.6397C66.986 15.9512 67.1483 16.238 67.3669 16.4792C67.5854 16.7205 67.8547 16.9103 68.1554 17.035ZM66.5996 12.6016C66.9147 12.2866 67.2886 12.0367 67.7002 11.8662C68.1118 11.6957 68.5529 11.608 68.9984 11.608C69.4439 11.608 69.8851 11.6957 70.2967 11.8662C70.7082 12.0367 71.0822 12.2866 71.3972 12.6016C71.7123 12.9166 71.9621 13.2906 72.1326 13.7022C72.3031 14.1138 72.3909 14.5549 72.3909 15.0004C72.3909 15.4459 72.3031 15.887 72.1326 16.2986C71.9621 16.7102 71.7123 17.0842 71.3972 17.3992C70.761 18.0354 69.8982 18.3928 68.9984 18.3928C68.0987 18.3928 67.2358 18.0354 66.5996 17.3992C65.9634 16.763 65.606 15.9001 65.606 15.0004C65.606 14.1007 65.9634 13.2378 66.5996 12.6016ZM73.1432 12.1132C73.2213 12.0396 73.2838 11.951 73.327 11.8528C73.3702 11.7546 73.3933 11.6487 73.3949 11.5413C73.3965 11.434 73.3765 11.3275 73.3361 11.2281C73.2958 11.1286 73.2359 11.0383 73.16 10.9624C73.0841 10.8865 72.9938 10.8266 72.8944 10.7863C72.7949 10.746 72.6884 10.726 72.5811 10.7275C72.4738 10.7291 72.3679 10.7522 72.2697 10.7954C72.1714 10.8386 72.0829 10.9011 72.0092 10.9792C71.866 11.131 71.7876 11.3327 71.7907 11.5413C71.7937 11.75 71.878 11.9493 72.0255 12.0969C72.1731 12.2445 72.3724 12.3287 72.5811 12.3318C72.7898 12.3348 72.9914 12.2564 73.1432 12.1132Z" fill="#FEF7EF"/>
</g>
<circle cx="123" cy="15" r="14.5" stroke="#FEF7EF"/>
<g clip-path="url(#clip2_26_6360)">
<path d="M130.198 9H115.798C115.479 9 115.174 9.12643 114.949 9.35147C114.724 9.57652 114.598 9.88174 114.598 10.2V19.8C114.598 20.1183 114.724 20.4235 114.949 20.6485C115.174 20.8736 115.479 21 115.798 21H130.198C130.516 21 130.821 20.8736 131.046 20.6485C131.271 20.4235 131.398 20.1183 131.398 19.8V10.2C131.398 9.88174 131.271 9.57652 131.046 9.35147C130.821 9.12643 130.516 9 130.198 9ZM128.878 10.2L122.998 14.268L117.118 10.2H128.878ZM115.798 19.8V10.746L122.656 15.492C122.756 15.5617 122.875 15.599 122.998 15.599C123.12 15.599 123.239 15.5617 123.34 15.492L130.198 10.746V19.8H115.798Z" fill="#FEF7EF"/>
</g>
</g>
<defs>
<clipPath id="clip0_26_6360">
<rect width="6.98824" height="14.4" fill="white" transform="translate(11.3984 7.80078)"/>
</clipPath>
<clipPath id="clip1_26_6360">
<rect width="14.4" height="14.4" fill="white" transform="translate(61.7969 7.80078)"/>
</clipPath>
<clipPath id="clip2_26_6360">
<rect width="19.2" height="19.2" fill="white" transform="translate(113.398 5.40039)"/>
</clipPath>
</defs>
</svg>
