<svg width="30" height="30" viewBox="0 0 30 30" fill="none" xmlns="http://www.w3.org/2000/svg">
<circle cx="15" cy="15" r="14.5" stroke="#FF8500"/>
<g clip-path="url(#clip0_26_2637)">
<path fill-rule="evenodd" clip-rule="evenodd" d="M12.2774 8.43999C12.9812 8.40759 13.2056 8.40039 14.9984 8.40039C16.7912 8.40039 17.0156 8.40819 17.7188 8.43999C18.422 8.47179 18.902 8.58399 19.322 8.74659C19.7618 8.91279 20.1608 9.17259 20.4908 9.50859C20.8268 9.83799 21.086 10.2364 21.2516 10.6768C21.4148 11.0968 21.5264 11.5768 21.5588 12.2788C21.5912 12.9838 21.5984 13.2082 21.5984 15.0004C21.5984 16.7932 21.5906 17.0176 21.5588 17.7214C21.527 18.4234 21.4148 18.9034 21.2516 19.3234C21.086 19.7638 20.8264 20.1629 20.4908 20.4928C20.1608 20.8288 19.7618 21.088 19.322 21.2536C18.902 21.4168 18.422 21.5284 17.72 21.5608C17.0156 21.5932 16.7912 21.6004 14.9984 21.6004C13.2056 21.6004 12.9812 21.5926 12.2774 21.5608C11.5754 21.529 11.0954 21.4168 10.6754 21.2536C10.235 21.088 9.83593 20.8283 9.50604 20.4928C9.17027 20.1632 8.91043 19.7643 8.74464 19.324C8.58204 18.904 8.47044 18.424 8.43804 17.722C8.40564 17.017 8.39844 16.7926 8.39844 15.0004C8.39844 13.2076 8.40624 12.9832 8.43804 12.28C8.46984 11.5768 8.58204 11.0968 8.74464 10.6768C8.91067 10.2364 9.17071 9.83758 9.50664 9.50799C9.83606 9.17229 10.2347 8.91246 10.6748 8.74659C11.0948 8.58399 11.5748 8.47239 12.2768 8.43999H12.2774ZM17.6654 9.62799C16.9694 9.59619 16.7606 9.58959 14.9984 9.58959C13.2362 9.58959 13.0274 9.59619 12.3314 9.62799C11.6876 9.65739 11.3384 9.76479 11.1056 9.85539C10.7978 9.97539 10.5776 10.1176 10.3466 10.3486C10.1277 10.5616 9.95915 10.821 9.85344 11.1076C9.76284 11.3404 9.65544 11.6896 9.62604 12.3334C9.59424 13.0294 9.58764 13.2382 9.58764 15.0004C9.58764 16.7626 9.59424 16.9714 9.62604 17.6674C9.65544 18.3112 9.76284 18.6604 9.85344 18.8932C9.95904 19.1794 10.1276 19.4392 10.3466 19.6522C10.5596 19.8712 10.8194 20.0398 11.1056 20.1454C11.3384 20.236 11.6876 20.3434 12.3314 20.3728C13.0274 20.4046 13.2356 20.4112 14.9984 20.4112C16.7612 20.4112 16.9694 20.4046 17.6654 20.3728C18.3092 20.3434 18.6584 20.236 18.8912 20.1454C19.199 20.0254 19.4192 19.8832 19.6502 19.6522C19.8692 19.4392 20.0378 19.1794 20.1434 18.8932C20.234 18.6604 20.3414 18.3112 20.3708 17.6674C20.4026 16.9714 20.4092 16.7626 20.4092 15.0004C20.4092 13.2382 20.4026 13.0294 20.3708 12.3334C20.3414 11.6896 20.234 11.3404 20.1434 11.1076C20.0234 10.7998 19.8812 10.5796 19.6502 10.3486C19.4372 10.1296 19.1779 9.96112 18.8912 9.85539C18.6584 9.76479 18.3092 9.65739 17.6654 9.62799ZM14.1554 17.035C14.6262 17.231 15.1505 17.2574 15.6386 17.1098C16.1267 16.9622 16.5485 16.6497 16.8318 16.2257C17.1151 15.8017 17.2425 15.2925 17.1921 14.7851C17.1417 14.2776 16.9166 13.8034 16.5554 13.4434C16.3252 13.2133 16.0468 13.0371 15.7402 12.9275C15.4337 12.8179 15.1067 12.7776 14.7827 12.8096C14.4588 12.8415 14.1459 12.9449 13.8667 13.1123C13.5875 13.2796 13.3489 13.5068 13.168 13.7775C12.9872 14.0482 12.8686 14.3556 12.8207 14.6776C12.7729 14.9996 12.7971 15.3282 12.8916 15.6397C12.986 15.9512 13.1483 16.238 13.3669 16.4792C13.5854 16.7205 13.8547 16.9103 14.1554 17.035ZM12.5996 12.6016C12.9147 12.2866 13.2886 12.0367 13.7002 11.8662C14.1118 11.6957 14.5529 11.608 14.9984 11.608C15.4439 11.608 15.8851 11.6957 16.2967 11.8662C16.7082 12.0367 17.0822 12.2866 17.3972 12.6016C17.7123 12.9166 17.9621 13.2906 18.1326 13.7022C18.3031 14.1138 18.3909 14.5549 18.3909 15.0004C18.3909 15.4459 18.3031 15.887 18.1326 16.2986C17.9621 16.7102 17.7123 17.0842 17.3972 17.3992C16.761 18.0354 15.8982 18.3928 14.9984 18.3928C14.0987 18.3928 13.2358 18.0354 12.5996 17.3992C11.9634 16.763 11.606 15.9001 11.606 15.0004C11.606 14.1007 11.9634 13.2378 12.5996 12.6016ZM19.1432 12.1132C19.2213 12.0396 19.2838 11.951 19.327 11.8528C19.3702 11.7546 19.3933 11.6487 19.3949 11.5413C19.3965 11.434 19.3765 11.3275 19.3361 11.2281C19.2958 11.1286 19.2359 11.0383 19.16 10.9624C19.0841 10.8865 18.9938 10.8266 18.8944 10.7863C18.7949 10.746 18.6884 10.726 18.5811 10.7275C18.4738 10.7291 18.3679 10.7522 18.2697 10.7954C18.1714 10.8386 18.0829 10.9011 18.0092 10.9792C17.866 11.131 17.7876 11.3327 17.7907 11.5413C17.7937 11.75 17.878 11.9493 18.0255 12.0969C18.1731 12.2445 18.3724 12.3287 18.5811 12.3318C18.7898 12.3348 18.9914 12.2564 19.1432 12.1132Z" fill="#FF8500"/>
</g>
<defs>
<clipPath id="clip0_26_2637">
<rect width="14.4" height="14.4" fill="white" transform="translate(7.79688 7.80078)"/>
</clipPath>
</defs>
</svg>