<svg width="30" height="30" viewBox="0 0 30 30" fill="none" xmlns="http://www.w3.org/2000/svg">
<circle cx="15" cy="15" r="14.5" stroke="#FF8500"/>
<path d="M22.1977 9H7.79766C7.4794 9 7.17417 9.12643 6.94913 9.35147C6.72408 9.57652 6.59766 9.88174 6.59766 10.2V19.8C6.59766 20.1183 6.72408 20.4235 6.94913 20.6485C7.17417 20.8736 7.4794 21 7.79766 21H22.1977C22.5159 21 22.8211 20.8736 23.0462 20.6485C23.2712 20.4235 23.3977 20.1183 23.3977 19.8V10.2C23.3977 9.88174 23.2712 9.57652 23.0462 9.35147C22.8211 9.12643 22.5159 9 22.1977 9ZM20.8777 10.2L14.9977 14.268L9.11766 10.2H20.8777ZM7.79766 19.8V10.746L14.6557 15.492C14.7561 15.5617 14.8754 15.599 14.9977 15.599C15.1199 15.599 15.2392 15.5617 15.3397 15.492L22.1977 10.746V19.8H7.79766Z" fill="#FF8500"/>
</svg>
