<svg width="48" height="48" viewBox="0 0 48 48" fill="none" xmlns="http://www.w3.org/2000/svg">
<g filter="url(#filter0_d_26_6238)">
<circle cx="24" cy="20" r="20" fill="white"/>
</g>
<g clip-path="url(#clip0_26_6238)">
<path d="M29.7792 26.6273C29.271 25.7471 28.1415 25.4445 27.2611 25.9526C26.3809 26.4609 26.0782 27.5905 26.5864 28.4707C26.8326 28.8971 27.2301 29.2021 27.7057 29.3296C27.8646 29.3721 28.0257 29.3931 28.1858 29.3931C28.5052 29.3931 28.8205 29.3094 29.1045 29.1454C29.9847 28.6372 30.2874 27.5076 29.7792 26.6273ZM28.7792 28.5819C28.5033 28.7412 28.1817 28.7834 27.8741 28.7011C27.5664 28.6186 27.3092 28.4213 27.1499 28.1454C26.8211 27.5758 27.0169 26.8449 27.5865 26.5161C27.7738 26.4079 27.9786 26.3565 28.1808 26.3565C28.5934 26.3565 28.9951 26.5705 29.2158 26.9526C29.5446 27.5222 29.3488 28.2531 28.7792 28.5819Z" fill="#FF8500"/>
<path d="M33.034 27.8723C32.5681 28.1413 31.97 27.9811 31.701 27.5151L31.5227 27.2063C31.4751 26.7382 31.331 26.2806 31.0928 25.868C30.3537 24.5879 28.8414 23.9457 27.4189 24.2755L18.6718 9.125L18.39 9.28766C17.0955 10.0351 16.6505 11.6962 17.3978 12.9907L21.7348 20.5026C22.1053 21.1444 22.645 21.6713 23.2955 22.0263C23.841 22.3241 24.2936 22.766 24.6044 23.3042L25.7284 25.2511C24.678 26.3692 24.5132 28.0609 25.3578 29.3719C25.8065 30.0685 26.498 30.5724 27.3048 30.7907C27.5965 30.8696 27.8939 30.9087 28.1897 30.9087C28.7123 30.9087 29.2298 30.7867 29.7015 30.547C30.5333 30.1243 31.1374 29.3992 31.4027 28.5054C31.4283 28.4191 31.4492 28.3318 31.4677 28.2441C31.7677 28.5095 32.1544 28.6533 32.5488 28.6533C32.8246 28.6533 33.1039 28.5832 33.3594 28.4357L33.034 27.8723ZM30.779 28.3202C30.565 29.0412 30.0777 29.626 29.4067 29.967C28.1851 30.5878 26.6468 30.1716 25.9046 29.0195C25.1845 27.9018 25.374 26.4411 26.355 25.5464L26.5483 25.3701L25.1678 22.979C24.7973 22.3372 24.2576 21.8103 23.6071 21.4553C23.0616 21.1575 22.609 20.7156 22.2982 20.1773L17.9612 12.6654C17.4485 11.7774 17.6742 10.6625 18.4465 10.036L27.1118 25.0448L27.3612 24.9655C28.5654 24.5828 29.8978 25.0992 30.5294 26.1932C30.9046 26.8431 30.9931 27.5985 30.779 28.3202Z" fill="#FF8500"/>
<path d="M21.143 27.038C21.0156 26.5624 20.7106 26.1648 20.2842 25.9187C19.8577 25.6724 19.361 25.6071 18.8854 25.7345C18.4098 25.8619 18.0123 26.167 17.7661 26.5934C17.2579 27.4736 17.5606 28.6032 18.4408 29.1114C18.7304 29.2786 19.0468 29.358 19.3594 29.358C19.9969 29.358 20.6179 29.0273 20.9589 28.4367C21.205 28.0104 21.2705 27.5136 21.143 27.038ZM20.3955 28.1114C20.0666 28.681 19.3357 28.8768 18.7661 28.548C18.1966 28.2191 18.0008 27.4882 18.3296 26.9186C18.4888 26.6428 18.7461 26.4454 19.0538 26.3629C19.1566 26.3354 19.2608 26.3218 19.3645 26.3218C19.5712 26.3218 19.7751 26.376 19.9589 26.4821C20.2348 26.6414 20.4322 26.8986 20.5146 27.2063C20.5971 27.514 20.5548 27.8355 20.3955 28.1114Z" fill="#FF8500"/>
<path d="M23.0526 23.0881L22.511 22.7277C22.4623 22.801 22.4168 22.8742 22.3759 22.9452L20.9953 25.3363L21.1887 25.5126C22.1221 26.364 22.3412 27.7761 21.7095 28.8703C21.3481 29.4962 20.7634 29.9443 20.0631 30.132C19.3628 30.3196 18.6324 30.2239 18.0064 29.8625C17.3805 29.5011 16.9324 28.9164 16.7448 28.2162C16.5571 27.5159 16.6528 26.7855 17.0142 26.1595C17.6459 25.0654 18.9783 24.5491 20.1824 24.9317L20.4318 25.011L21.988 22.3155L21.4246 21.9902L20.1247 24.2418C18.7022 23.912 17.1898 24.5542 16.4507 25.8342C16.0024 26.6107 15.8837 27.5164 16.1163 28.3845C16.3489 29.2526 16.9047 29.9776 17.6811 30.4259C18.2092 30.7307 18.7862 30.8756 19.3562 30.8756C20.5187 30.8755 21.651 30.2726 22.2729 29.1955C23.0119 27.9154 22.812 26.2846 21.815 25.2176L22.9392 23.2703C22.9733 23.2113 23.0115 23.15 23.0526 23.0881Z" fill="#FF8500"/>
<path d="M30.416 10.8995C30.2286 10.2001 29.7801 9.61552 29.153 9.25348L28.8713 9.09082L24.168 17.2371L24.7314 17.5625L29.0967 10.0015C29.4326 10.2732 29.6736 10.6426 29.7876 11.0678C29.93 11.5994 29.8569 12.1546 29.5817 12.6312L25.5452 19.6227L26.1086 19.948L30.1452 12.9565C30.5073 12.3294 30.6034 11.5989 30.416 10.8995Z" fill="#FF8500"/>
<path d="M23.9592 20.1621H23.3086V20.8127H23.9592V20.1621Z" fill="#FF8500"/>
<path d="M25.3029 10.2734H24.6523V10.924H25.3029V10.2734Z" fill="#FF8500"/>
<path d="M22.7014 10.2734H22.0508V10.924H22.7014V10.2734Z" fill="#FF8500"/>
<path d="M24.0021 10.2734H23.3516V10.924H24.0021V10.2734Z" fill="#FF8500"/>
</g>
<defs>
<filter id="filter0_d_26_6238" x="0" y="0" width="48" height="48" filterUnits="userSpaceOnUse" color-interpolation-filters="sRGB">
<feFlood flood-opacity="0" result="BackgroundImageFix"/>
<feColorMatrix in="SourceAlpha" type="matrix" values="0 0 0 0 0 0 0 0 0 0 0 0 0 0 0 0 0 0 127 0" result="hardAlpha"/>
<feOffset dy="4"/>
<feGaussianBlur stdDeviation="2"/>
<feColorMatrix type="matrix" values="0 0 0 0 0.6 0 0 0 0 0.312941 0 0 0 0 0 0 0 0 0.12 0"/>
<feBlend mode="normal" in2="BackgroundImageFix" result="effect1_dropShadow_26_6238"/>
<feBlend mode="normal" in="SourceGraphic" in2="effect1_dropShadow_26_6238" result="shape"/>
</filter>
<clipPath id="clip0_26_6238">
<rect width="17.7273" height="21.8182" fill="white" transform="translate(15.8164 9.09082)"/>
</clipPath>
</defs>
</svg>
